<svg width="57" height="50" viewBox="0 0 57 50" fill="none" xmlns="http://www.w3.org/2000/svg">
<path d="M57 32.8467V6.59854C57 2.9635 54.0692 0 50.4742 0H6.52584C2.93085 0 0 2.9635 0 6.59854V32.8467C0 36.4818 2.93085 39.4453 6.52584 39.4453H8.3883V47.3577C8.3883 48.8175 9.55775 50 11.016 50C11.7667 50 12.4886 49.6642 12.9939 49.0803L21.2378 39.4307H50.4886C54.0692 39.4453 57 36.4818 57 32.8467ZM20.4149 35.8686C19.8951 35.8686 19.4187 36.0876 19.0722 36.4818L11.9111 44.8467V37.6496C11.9111 36.6569 11.117 35.854 10.1353 35.854H6.52584C4.87994 35.854 3.53723 34.4963 3.53723 32.8321V6.59854C3.53723 4.93431 4.87994 3.57664 6.52584 3.57664H50.4742C52.1201 3.57664 53.4628 4.93431 53.4628 6.59854V32.8467C53.4628 34.5109 52.1201 35.8686 50.4742 35.8686H20.4149Z" fill="white"/>
</svg>
